<?xml version="1.0" encoding="utf-8"?>
<!-- Generator: Adobe Illustrator 25.2.3, SVG Export Plug-In . SVG Version: 6.00 Build 0)  -->
<svg version="1.1" id="Layer_1" xmlns="http://www.w3.org/2000/svg" xmlns:xlink="http://www.w3.org/1999/xlink" x="0px" y="0px"
	 viewBox="0 0 397 491.7" style="enable-background:new 0 0 397 491.7;" xml:space="preserve">
<style type="text/css">
	.st0{fill:url(#SVGID_1_);}
	.st1{fill:#FFFFFF;}
	.st2{opacity:0.8;fill:none;stroke:#D9D8DE;stroke-width:3;stroke-linecap:round;stroke-miterlimit:10;enable-background:new    ;}
	.st3{fill:none;stroke:#BBBABC;stroke-width:3;stroke-linecap:round;stroke-miterlimit:10;}
	.st4{fill:#E6E7E8;}
	.st5{fill:#BBBABC;}
	.st6{fill:url(#SVGID_2_);}
</style>
<g>
	<linearGradient id="SVGID_1_" gradientUnits="userSpaceOnUse" x1="193.15" y1="0" x2="193.15" y2="490.6">
		<stop  offset="1.362392e-03" style="stop-color:#111111;stop-opacity:0"/>
		<stop  offset="0.8589" style="stop-color:#111111;stop-opacity:0.8587"/>
		<stop  offset="1" style="stop-color:#111111"/>
		<stop  offset="1" style="stop-color:#606060"/>
	</linearGradient>
	<path class="st0" d="M324.5,0H66C31.9,0,4.2,27.7,4.2,61.8v55.3c-2.3,0-4.2,1.9-4.2,4.2v29c0,2.3,1.9,4.2,4.2,4.2v27.7
		c-2.3,0-4.2,1.9-4.2,4.2v57.1c0,2.3,1.9,4.2,4.2,4.2v10.8c-2.3,0-4.2,1.9-4.2,4.2v57.1c0,2.3,1.9,4.2,4.2,4.2v166.6h382.1V61.8
		C386.3,27.7,358.6,0,324.5,0z"/>
	<path class="st1" d="M382.6,490.4V62.8c0-32.4-26.2-58.6-58.6-58.6H66.5C34.2,4.2,7.9,30.4,7.9,62.8v427.6c0,0.2,0.1,0.3,0.3,0.3
		h374C382.4,490.7,382.6,490.5,382.6,490.4z"/>
	<line class="st2" x1="345.1" y1="398.8" x2="45.3" y2="398.8"/>
	<line class="st3" x1="45.3" y1="398.8" x2="214.2" y2="398.8"/>
	<path class="st4" d="M270.2,35.7H120.3c-10.3,0-18.7-8.4-18.7-18.7V4.2h187.3V17C288.9,27.4,280.5,35.7,270.2,35.7z"/>
	<circle class="st5" cx="214.2" cy="398.8" r="2.8"/>
	
		<linearGradient id="SVGID_2_" gradientUnits="userSpaceOnUse" x1="1464.8649" y1="-812.474" x2="1812.865" y2="-812.474" gradientTransform="matrix(6.123234e-17 1 1 -6.123234e-17 1009.574 -1321.1649)">
		<stop  offset="0" style="stop-color:#111111;stop-opacity:0"/>
		<stop  offset="1" style="stop-color:#111111"/>
		<stop  offset="1" style="stop-color:#111111"/>
	</linearGradient>
	<polygon class="st6" points="386.3,491.7 386.3,143.7 7.9,143.7 7.9,491.7 	"/>
</g>
</svg>
