<svg id="Layer_1" data-name="Layer 1" xmlns="http://www.w3.org/2000/svg" viewBox="0 0 1472.44 635.26"><defs><style>.cls-1{fill:#fff;}</style></defs><polygon class="cls-1" points="578.92 48.97 578.92 48.97 578.92 48.97 529.95 0 480.98 48.97 509.66 77.66 509.66 586.24 509.66 586.24 509.66 586.24 558.64 635.21 607.61 586.24 578.92 557.55 578.92 48.97"/><polygon class="cls-1" points="804.93 196.27 755.96 147.3 706.99 196.27 755.96 245.24 765.21 254.49 765.21 450.85 765.21 450.85 765.21 586.24 834.32 516.98 834.32 473.64 834.32 450.85 834.32 225.8 804.89 196.32 804.93 196.27"/><polygon class="cls-1" points="707.13 309.2 706.99 309.2 706.99 196.27 637.88 265.53 637.88 309.2 637.88 331.66 637.88 556.86 667.26 586.24 716.23 635.21 765.21 586.24 707.13 528.17 707.13 309.2"/><polygon class="cls-1" points="196.44 435.33 196.44 435.33 69.26 308.08 69.26 254.34 78.36 245.24 127.33 196.27 78.36 147.3 29.39 196.27 0 225.66 0 336.71 0.05 336.71 0 336.76 127.19 463.94 127.19 528.17 69.11 586.24 118.08 635.21 196.44 556.98 196.44 456.23 196.44 435.33 196.44 435.33"/><polygon class="cls-1" points="451.99 225.8 451.84 225.8 451.99 225.66 422.6 196.27 373.63 147.3 324.66 196.27 373.63 245.24 382.73 254.34 382.73 586.09 324.8 528.16 324.78 331.66 324.8 331.66 324.66 196.27 255.54 265.53 255.54 309.2 255.54 331.66 255.54 556.98 255.66 556.98 284.93 586.24 333.9 635.21 382.88 586.24 382.84 586.21 382.91 586.21 382.88 586.24 430.53 635.21 479.5 586.21 451.99 558.67 451.99 225.8"/><polygon class="cls-1" points="1217 225.62 1138.74 147.36 1130.84 155.25 1130.82 155.24 1075.12 210.95 1060.44 196.27 1011.47 147.3 962.57 196.2 913.67 147.3 864.69 196.27 893.38 224.96 893.38 265.53 893.38 331.66 893.38 586.24 893.38 586.24 893.38 586.24 942.35 635.21 991.33 586.24 962.64 557.55 962.64 331.66 962.64 196.42 1011.47 245.24 1020.57 254.34 1020.57 317.62 1020.57 474.58 1020.57 586.24 1020.57 586.24 1020.57 586.24 1069.54 635.21 1118.51 586.24 1089.82 557.55 1089.82 474.58 1089.82 317.62 1089.82 226.14 1104.76 211.2 1147.75 254.2 1147.75 586.24 1147.75 586.24 1147.75 586.24 1147.75 586.24 1147.75 586.24 1196.72 635.21 1245.7 586.24 1217 557.54 1217 225.62"/><path class="cls-1" d="M1403.18,586.09l-57.92-57.92V352.84L1428,270.08h0l44.42-44.42-29.38-29.39-49-49-49,49,.07.07L1276,265.53V557h.12l29.26,29.26,49,49,49-49-.08-.07L1472.44,517V450.85h-69.26Zm-57.92-389.67,48.82,48.82,14.44,14.44-63.26,63.26V196.42Z"/><polygon class="cls-1" points="1297.48 50.64 1275.86 170.2 1346.46 99.61 1297.48 50.64"/><polygon class="cls-1" points="127.33 294.95 127.33 305.13 196.59 374.39 196.59 331.66 196.59 294.95 196.59 265.53 127.33 196.27 127.33 294.95"/><polygon class="cls-1" points="69.97 506.71 69.97 477.29 0.71 408.03 0.71 506.71 0.71 516.89 69.11 586.24 69.97 543.42 69.97 506.71"/></svg>