<svg id="Layer_1" data-name="Layer 1" xmlns="http://www.w3.org/2000/svg" viewBox="0 0 1472.44 768.33"><polygon points="578.92 48.97 578.92 48.97 578.92 48.97 529.95 0 480.98 48.97 509.66 77.66 509.66 586.24 509.66 586.24 509.66 586.24 558.64 635.21 607.61 586.24 578.92 557.55 578.92 48.97"/><polygon points="804.93 196.27 755.96 147.3 706.99 196.27 755.96 245.24 765.21 254.49 765.21 450.85 765.21 450.85 765.21 586.24 834.32 516.98 834.32 473.64 834.32 450.85 834.32 225.8 804.89 196.32 804.93 196.27"/><polygon points="707.13 309.2 706.99 309.2 706.99 196.27 637.88 265.53 637.88 309.2 637.88 331.66 637.88 556.86 667.26 586.24 716.23 635.21 765.21 586.24 707.13 528.17 707.13 309.2"/><polygon points="196.44 435.33 196.44 435.33 69.26 308.08 69.26 254.34 78.36 245.24 127.33 196.27 78.36 147.3 29.39 196.27 0 225.66 0 336.71 0.05 336.71 0 336.76 127.19 463.94 127.19 528.17 69.11 586.24 118.08 635.21 196.44 556.98 196.44 456.23 196.44 435.33 196.44 435.33"/><polygon points="451.99 225.8 451.84 225.8 451.99 225.66 422.6 196.27 373.63 147.3 324.66 196.27 373.63 245.24 382.73 254.34 382.73 586.09 324.8 528.16 324.78 331.66 324.8 331.66 324.66 196.27 255.54 265.53 255.54 309.2 255.54 331.66 255.54 556.98 255.66 556.98 284.93 586.24 333.9 635.21 382.88 586.24 382.84 586.21 382.91 586.21 382.88 586.24 430.53 635.21 479.5 586.21 451.99 558.67 451.99 225.8"/><polygon points="1217 225.62 1138.74 147.36 1130.84 155.25 1130.82 155.24 1075.12 210.95 1060.44 196.27 1011.47 147.3 962.57 196.2 913.67 147.3 864.69 196.27 893.38 224.96 893.38 265.53 893.38 331.66 893.38 586.24 893.38 586.24 893.38 586.24 942.35 635.21 991.33 586.24 962.64 557.55 962.64 331.66 962.64 196.42 1011.47 245.24 1020.57 254.34 1020.57 317.62 1020.57 474.58 1020.57 586.24 1020.57 586.24 1020.57 586.24 1069.54 635.21 1118.51 586.24 1089.82 557.55 1089.82 474.58 1089.82 317.62 1089.82 226.14 1104.76 211.2 1147.75 254.2 1147.75 586.24 1147.75 586.24 1147.75 586.24 1147.75 586.24 1147.75 586.24 1196.72 635.21 1245.7 586.24 1217 557.54 1217 225.62"/><path d="M1404.25,586.09l-57.92-57.92V352.84l82.76-82.76h0l44.42-44.42-29.38-29.39-49-49-49,49,.07.07-69.18,69.19V557h.12l29.26,29.26,49,49,49-49-.08-.07L1473.51,517V450.85h-69.26Zm-57.92-389.67,48.82,48.82,14.44,14.44-63.26,63.26V196.42Z" transform="translate(-1.07 0)"/><polygon points="1297.48 50.64 1275.86 170.2 1346.46 99.61 1297.48 50.64"/><polygon points="127.33 294.95 127.33 305.13 196.59 374.39 196.59 331.66 196.59 294.95 196.59 265.53 127.33 196.27 127.33 294.95"/><polygon points="69.97 506.71 69.97 477.29 0.71 408.03 0.71 506.71 0.71 516.89 69.11 586.24 69.97 543.42 69.97 506.71"/><path d="M936.27,743.65a27.26,27.26,0,0,1-1.71,9.87,22.1,22.1,0,0,1-4.85,7.61,21.69,21.69,0,0,1-7.51,4.9,26.25,26.25,0,0,1-9.7,1.73h-18V719.51h18a26,26,0,0,1,9.7,1.74,21.43,21.43,0,0,1,7.51,4.91,22.18,22.18,0,0,1,4.85,7.63A27.25,27.25,0,0,1,936.27,743.65Zm-6.7,0a24.12,24.12,0,0,0-1.21-7.94,16.66,16.66,0,0,0-3.44-5.93,14.64,14.64,0,0,0-5.38-3.7,18.5,18.5,0,0,0-7-1.28H901v37.67H912.5a18.7,18.7,0,0,0,7-1.27,14.86,14.86,0,0,0,5.38-3.69,16.57,16.57,0,0,0,3.44-5.91A24.14,24.14,0,0,0,929.57,743.65Z" transform="translate(-1.07 0)"/><path d="M983,719.51v5.32H959.81v16h18.75V746H959.81v16.46H983v5.32H953.24V719.51Z" transform="translate(-1.07 0)"/><path d="M1025.16,727.05a2.64,2.64,0,0,1-.64.76,1.41,1.41,0,0,1-.88.25,2.35,2.35,0,0,1-1.33-.57,21.16,21.16,0,0,0-1.91-1.26,15.68,15.68,0,0,0-2.8-1.26,13.39,13.39,0,0,0-7.83,0,8.41,8.41,0,0,0-2.81,1.6,6.64,6.64,0,0,0-1.7,2.38,7.55,7.55,0,0,0-.57,2.94,5.44,5.44,0,0,0,1,3.35,8.53,8.53,0,0,0,2.63,2.28,20.71,20.71,0,0,0,3.7,1.63l4.24,1.43c1.45.49,2.87,1,4.25,1.67a14.52,14.52,0,0,1,3.7,2.34,10.81,10.81,0,0,1,2.63,3.46,11.6,11.6,0,0,1,1,5.05,16.29,16.29,0,0,1-1.08,5.95,13.75,13.75,0,0,1-3.15,4.83,14.6,14.6,0,0,1-5.08,3.23,18.6,18.6,0,0,1-6.85,1.18,21,21,0,0,1-8.54-1.7,20,20,0,0,1-6.58-4.6l1.89-3.09a2.44,2.44,0,0,1,.65-.63,1.54,1.54,0,0,1,.86-.25,2.68,2.68,0,0,1,1.62.76,25.62,25.62,0,0,0,2.27,1.66,16.9,16.9,0,0,0,3.3,1.67,12.92,12.92,0,0,0,4.73.76,12.33,12.33,0,0,0,4.14-.64,8.92,8.92,0,0,0,3.08-1.8,7.89,7.89,0,0,0,1.94-2.78,9.27,9.27,0,0,0,.67-3.6,6.07,6.07,0,0,0-1-3.59,8.22,8.22,0,0,0-2.61-2.34,18.39,18.39,0,0,0-3.69-1.6l-4.24-1.34a44,44,0,0,1-4.24-1.6,14.09,14.09,0,0,1-3.69-2.36,10.79,10.79,0,0,1-2.61-3.62,12.94,12.94,0,0,1-1-5.37,12.83,12.83,0,0,1,3.87-9.19,13.9,13.9,0,0,1,4.66-3,17.09,17.09,0,0,1,6.38-1.11,20.53,20.53,0,0,1,7.38,1.28,17,17,0,0,1,5.82,3.71Z" transform="translate(-1.07 0)"/><path d="M1052,767.76h-6.53V719.51H1052Z" transform="translate(-1.07 0)"/><path d="M1094.48,763a32.87,32.87,0,0,0,3.59-.18,21.63,21.63,0,0,0,3.08-.56,19.4,19.4,0,0,0,2.73-.89c.85-.35,1.7-.75,2.56-1.19V749.55H1099a1.43,1.43,0,0,1-1-.37,1.21,1.21,0,0,1-.39-.91v-3.71h14.81v18.52a26.24,26.24,0,0,1-3.78,2.29,25.53,25.53,0,0,1-4.21,1.63,30.18,30.18,0,0,1-4.8,1,45.66,45.66,0,0,1-5.56.32,25.1,25.1,0,0,1-9.63-1.8,22.32,22.32,0,0,1-7.54-5,23,23,0,0,1-4.93-7.8,27.32,27.32,0,0,1-1.77-10,27.92,27.92,0,0,1,1.74-10.06,21.63,21.63,0,0,1,12.72-12.83,27.85,27.85,0,0,1,10.22-1.79,31.62,31.62,0,0,1,5.32.42,25.31,25.31,0,0,1,4.56,1.22,20.12,20.12,0,0,1,3.89,1.92,23.52,23.52,0,0,1,3.34,2.54l-1.86,3a1.69,1.69,0,0,1-1.48.91,2.37,2.37,0,0,1-1.18-.37c-.56-.31-1.19-.7-1.88-1.15a17.07,17.07,0,0,0-2.54-1.29,20,20,0,0,0-3.54-1.06,23.4,23.4,0,0,0-4.83-.44,19.47,19.47,0,0,0-7.37,1.33,15.66,15.66,0,0,0-5.63,3.8,16.81,16.81,0,0,0-3.57,6,23.54,23.54,0,0,0-1.24,7.89,24,24,0,0,0,1.29,8.17,17.46,17.46,0,0,0,3.66,6.08,15.77,15.77,0,0,0,5.59,3.8A18.66,18.66,0,0,0,1094.48,763Z" transform="translate(-1.07 0)"/><path d="M1135.14,719.73a3.4,3.4,0,0,1,1,.89l28,36.37c-.07-.59-.12-1.15-.14-1.7s0-1.09,0-1.6V719.51h5.72v48.25h-3.3a2.77,2.77,0,0,1-1.29-.27,3.26,3.26,0,0,1-1-.91l-27.91-36.33c0,.56.08,1.11.1,1.65s0,1,0,1.48v34.38h-5.72V719.51h3.37A2.85,2.85,0,0,1,1135.14,719.73Z" transform="translate(-1.07 0)"/><path d="M1261.09,767.76h-6.57v-22h-26v22H1222V719.51h6.57V741h26V719.51h6.57Z" transform="translate(-1.07 0)"/><path d="M1325.77,743.65a27.94,27.94,0,0,1-1.72,10,22.72,22.72,0,0,1-4.85,7.8,21.74,21.74,0,0,1-7.52,5.06,27,27,0,0,1-19.42,0,21.75,21.75,0,0,1-7.5-5.06,22.72,22.72,0,0,1-4.85-7.8,29.64,29.64,0,0,1,0-19.9,22.86,22.86,0,0,1,4.85-7.81,21.71,21.71,0,0,1,7.5-5.1,26.81,26.81,0,0,1,19.42,0,21.69,21.69,0,0,1,7.52,5.1,22.86,22.86,0,0,1,4.85,7.81A28,28,0,0,1,1325.77,743.65Zm-6.7,0a24.49,24.49,0,0,0-1.22-8,16.74,16.74,0,0,0-3.43-6,14.94,14.94,0,0,0-5.39-3.76,19.63,19.63,0,0,0-14.1,0,15.1,15.1,0,0,0-5.41,3.76,16.77,16.77,0,0,0-3.45,6,26.89,26.89,0,0,0,0,16,16.9,16.9,0,0,0,3.45,6,14.91,14.91,0,0,0,5.41,3.73,19.77,19.77,0,0,0,14.1,0,14.75,14.75,0,0,0,5.39-3.73,16.87,16.87,0,0,0,3.43-6A24.34,24.34,0,0,0,1319.07,743.65Z" transform="translate(-1.07 0)"/><path d="M1361.52,762.58a13.55,13.55,0,0,0,5.36-1,11.37,11.37,0,0,0,4-2.83,12.42,12.42,0,0,0,2.49-4.35,17.18,17.18,0,0,0,.86-5.55V719.51h6.5v29.33a22.15,22.15,0,0,1-1.33,7.74,18.06,18.06,0,0,1-3.81,6.18,17.4,17.4,0,0,1-6,4.09,22.44,22.44,0,0,1-16,0,17.58,17.58,0,0,1-6.06-4.09,17.78,17.78,0,0,1-3.82-6.18,21.92,21.92,0,0,1-1.33-7.74V719.51h6.5V748.8a17.25,17.25,0,0,0,.85,5.56,12.48,12.48,0,0,0,2.5,4.34,11.27,11.27,0,0,0,4,2.85A13.53,13.53,0,0,0,1361.52,762.58Z" transform="translate(-1.07 0)"/><path d="M1424.72,727.05a2.49,2.49,0,0,1-.64.76,1.38,1.38,0,0,1-.87.25,2.3,2.3,0,0,1-1.33-.57q-.77-.57-1.92-1.26a15.68,15.68,0,0,0-2.8-1.26,13.39,13.39,0,0,0-7.83,0,8.41,8.41,0,0,0-2.81,1.6,6.64,6.64,0,0,0-1.7,2.38,7.55,7.55,0,0,0-.57,2.94,5.44,5.44,0,0,0,1,3.35,8.64,8.64,0,0,0,2.63,2.28,20.71,20.71,0,0,0,3.7,1.63l4.25,1.43c1.44.49,2.86,1,4.24,1.67a14.52,14.52,0,0,1,3.7,2.34,10.67,10.67,0,0,1,2.63,3.46,11.6,11.6,0,0,1,1,5.05,16.29,16.29,0,0,1-1.08,5.95,13.59,13.59,0,0,1-3.14,4.83,14.64,14.64,0,0,1-5.09,3.23,18.6,18.6,0,0,1-6.85,1.18,21,21,0,0,1-8.54-1.7,20,20,0,0,1-6.58-4.6l1.89-3.09a2.59,2.59,0,0,1,.65-.63,1.54,1.54,0,0,1,.86-.25,2.68,2.68,0,0,1,1.62.76,27.2,27.2,0,0,0,2.27,1.66,16.9,16.9,0,0,0,3.3,1.67,12.92,12.92,0,0,0,4.73.76,12.33,12.33,0,0,0,4.14-.64,8.82,8.82,0,0,0,3.08-1.8,7.76,7.76,0,0,0,1.94-2.78,9.27,9.27,0,0,0,.67-3.6,6.07,6.07,0,0,0-1-3.59,8.22,8.22,0,0,0-2.61-2.34,18.39,18.39,0,0,0-3.69-1.6l-4.24-1.34a44,44,0,0,1-4.24-1.6,14.09,14.09,0,0,1-3.69-2.36,11.08,11.08,0,0,1-2.61-3.62,12.94,12.94,0,0,1-1-5.37,12.83,12.83,0,0,1,3.87-9.19,13.85,13.85,0,0,1,4.67-3,17.06,17.06,0,0,1,6.38-1.11,20.47,20.47,0,0,1,7.37,1.28,17,17,0,0,1,5.82,3.71Z" transform="translate(-1.07 0)"/><path d="M1473.51,719.51v5.32h-23.17v16h18.76V746h-18.76v16.46h23.17v5.32h-29.73V719.51Z" transform="translate(-1.07 0)"/></svg>