<?xml version="1.0" encoding="utf-8"?>
<!-- Generator: Adobe Illustrator 25.2.3, SVG Export Plug-In . SVG Version: 6.00 Build 0)  -->
<svg version="1.1" id="Layer_1" xmlns="http://www.w3.org/2000/svg" xmlns:xlink="http://www.w3.org/1999/xlink" x="0px" y="0px"
	 viewBox="0 0 1472.4 869.3" style="enable-background:new 0 0 1472.4 869.3;" xml:space="preserve">
<style type="text/css">
	.st0{fill:#FFFFFF;}
	.st1{font-family:'SangBleuOGSans';}
	.st2{font-size:84.9548px;}
	.st3{letter-spacing:33;}
</style>
<rect x="-426.7" y="-352.4" width="2325.8" height="1520.9"/>
<polygon class="st0" points="578.9,49 578.9,49 578.9,49 530,0 481,49 509.7,77.7 509.7,586.2 509.7,586.2 509.7,586.2 558.6,635.2 
	607.6,586.2 578.9,557.5 "/>
<polygon class="st0" points="804.9,196.3 756,147.3 707,196.3 756,245.2 765.2,254.5 765.2,450.9 765.2,450.9 765.2,586.2 
	834.3,517 834.3,473.6 834.3,450.9 834.3,225.8 804.9,196.3 "/>
<polygon class="st0" points="707.1,309.2 707,309.2 707,196.3 637.9,265.5 637.9,309.2 637.9,331.7 637.9,556.9 667.3,586.2 
	716.2,635.2 765.2,586.2 707.1,528.2 "/>
<polygon class="st0" points="196.4,435.3 196.4,435.3 69.3,308.1 69.3,254.3 78.4,245.2 127.3,196.3 78.4,147.3 29.4,196.3 0,225.7 
	0,336.7 0.1,336.7 0,336.8 127.2,463.9 127.2,528.2 69.1,586.2 118.1,635.2 196.4,557 196.4,456.2 196.4,435.3 "/>
<polygon class="st0" points="452,225.8 451.8,225.8 452,225.7 422.6,196.3 373.6,147.3 324.7,196.3 373.6,245.2 382.7,254.3 
	382.7,586.1 324.8,528.2 324.8,331.7 324.8,331.7 324.7,196.3 255.5,265.5 255.5,309.2 255.5,331.7 255.5,557 255.7,557 
	284.9,586.2 333.9,635.2 382.9,586.2 382.8,586.2 382.9,586.2 382.9,586.2 430.5,635.2 479.5,586.2 452,558.7 "/>
<polygon class="st0" points="1217,225.6 1138.7,147.4 1130.8,155.2 1130.8,155.2 1075.1,210.9 1060.4,196.3 1011.5,147.3 
	962.6,196.2 913.7,147.3 864.7,196.3 893.4,225 893.4,265.5 893.4,331.7 893.4,586.2 893.4,586.2 893.4,586.2 942.3,635.2 
	991.3,586.2 962.6,557.5 962.6,331.7 962.6,196.4 1011.5,245.2 1020.6,254.3 1020.6,317.6 1020.6,474.6 1020.6,586.2 1020.6,586.2 
	1020.6,586.2 1069.5,635.2 1118.5,586.2 1089.8,557.5 1089.8,474.6 1089.8,317.6 1089.8,226.1 1104.8,211.2 1147.8,254.2 
	1147.8,586.2 1147.8,586.2 1147.8,586.2 1147.8,586.2 1147.8,586.2 1196.7,635.2 1245.7,586.2 1217,557.5 "/>
<path class="st0" d="M1403.2,586.1l-57.9-57.9V352.8l82.8-82.8l0,0l44.4-44.4l-29.4-29.4l-49-49l-49,49l0.1,0.1l-69.2,69.2V557h0.1
	l29.3,29.3l49,49l49-49L1403.2,586.1l69.3-69.1v-66.1h-69.3V586.1z M1345.3,196.4l48.8,48.8l14.4,14.4l-63.3,63.3L1345.3,196.4
	L1345.3,196.4z"/>
<polygon class="st0" points="1297.5,50.6 1275.9,170.2 1346.5,99.6 "/>
<polygon class="st0" points="127.3,295 127.3,305.1 196.6,374.4 196.6,331.7 196.6,295 196.6,265.5 127.3,196.3 "/>
<polygon class="st0" points="70,506.7 70,477.3 0.7,408 0.7,506.7 0.7,516.9 69.1,586.2 70,543.4 "/>
<text transform="matrix(1 0 0 1 205.2547 805.8713)" class="st0 st1 st2 st3">DESIGN HOUSE</text>
<text transform="matrix(1 0 0 1 -1463.8837 559.7891)" style="font-family:'SangBleuOGSans-Light'; font-size:100.8716px;">sharp</text>
<text transform="matrix(1 0 0 1 -1209.8964 559.7891)" class="st1" style="font-size:49.399px;">designs for</text>
<text transform="matrix(1 0 0 1 -1362.9565 650.23)" class="st1" style="font-size:70.8759px;">the silver tongued</text>
</svg>
